# xmcd
#
# Track frame offsets: 
#        150
#        4496
#        29234
#        104691
#        111469
#        160233
#        201214
#        208614
#
# Disc length: 2927 seconds
#
# Revision: 2
# Processed by: cddbd v1.5.2PL0 Copyright (c) Steve Scherf et al.
# Submitted via: ExactAudioCopy v0.95b4
#
DISCID=790b6d08
DTITLE=Yves Robert - In Touch
DYEAR=2002
DGENRE=Jazz
TTITLE0=In Touch
TTITLE1=Let'S Lay Down
TTITLE2=La Tendresse
TTITLE3=In Touch Var.I
TTITLE4=L'Air D'Y Toucher
TTITLE5=Basculement Du Désir
TTITLE6=L'Attente Reste
TTITLE7=In Touch Var.II
EXTD=YEAR: 2002
EXTT0=
EXTT1=
EXTT2=
EXTT3=
EXTT4=
EXTT5=
EXTT6=
EXTT7=
PLAYORDER=
